<?xml version="1.0" standalone="no"?><!DOCTYPE svg PUBLIC "-//W3C//DTD SVG 1.1//EN" "http://www.w3.org/Graphics/SVG/1.1/DTD/svg11.dtd"><svg t="1661761405273" class="icon" viewBox="0 0 1024 1024" version="1.1" xmlns="http://www.w3.org/2000/svg" p-id="1350" xmlns:xlink="http://www.w3.org/1999/xlink" width="200" height="200"><path d="M770.6624 334.4384a20.48 20.48 0 0 1-20.48-23.9616l12.0832-72.0896-52.4288-50.7904a20.48 20.48 0 0 1 11.264-35.0208l72.2944-10.8544 32.1536-65.7408a20.48 20.48 0 0 1 18.2272-11.4688 20.48 20.48 0 0 1 18.2272 11.264l32.9728 65.536 72.4992 10.24a20.48 20.48 0 0 1 11.4688 34.816l-52.224 51.2 12.6976 72.0896a20.48 20.48 0 0 1-29.696 21.7088l-64.9216-33.792-64.512 34.4064a20.48 20.48 0 0 1-9.6256 2.4576z m-2.4576-147.456L798.72 216.4736a20.48 20.48 0 0 1 5.9392 18.0224l-6.9632 40.96 37.4784-20.48a20.48 20.48 0 0 1 19.0464 0l37.6832 20.48-7.3728-40.96a20.48 20.48 0 0 1 5.7344-18.2272L921.6 186.368l-43.008-5.9392a20.48 20.48 0 0 1-15.36-11.0592l-19.0464-38.0928-18.6368 38.0928a20.48 20.48 0 0 1-15.36 11.264z m38.912-26.4192zM232.2432 938.1888H93.7984a20.48 20.48 0 0 1-20.48-20.48v-450.56a20.48 20.48 0 0 1 20.48-20.48h138.4448a20.48 20.48 0 0 1 20.48 20.48v450.56a20.48 20.48 0 0 1-20.48 20.48z m-117.9648-40.96h97.4848v-409.6H114.2784z" fill="#d4237a" p-id="1351"></path><path d="M752.2304 938.1888H315.5968a20.48 20.48 0 0 1-20.48-20.48v-450.56a20.48 20.48 0 0 1 17.2032-20.48 219.5456 219.5456 0 0 0 163.84-135.168 270.7456 270.7456 0 0 0 14.1312-52.6336 224.0512 224.0512 0 0 1 23.9616-74.3424 83.7632 83.7632 0 0 1 87.04-37.2736 94.6176 94.6176 0 0 1 79.872 70.8608c27.2384 81.92-20.48 178.5856-50.5856 228.352h176.7424a117.5552 117.5552 0 0 1 112.2304 151.9616l-85.6064 278.528a85.1968 85.1968 0 0 1-81.7152 61.2352z m-415.9488-40.96h415.9488a44.4416 44.4416 0 0 0 42.5984-31.5392L880.64 587.1616a76.3904 76.3904 0 0 0-73.1136-98.9184h-215.04a20.48 20.48 0 0 1-16.384-32.768c0-1.2288 97.0752-131.2768 66.1504-223.6416a54.6816 54.6816 0 0 0-45.2608-43.008c-30.1056-3.2768-40.96 7.3728-47.9232 18.2272a194.9696 194.9696 0 0 0-18.6368 61.44 304.7424 304.7424 0 0 1-16.5888 61.44 261.7344 261.7344 0 0 1-177.7664 155.648z" fill="#d4237a" p-id="1352"></path></svg>